<svg width="76" height="34" viewBox="0 0 76 34" fill="none" xmlns="http://www.w3.org/2000/svg">
<path d="M0.466797 5.54909C0.466797 2.74518 2.70537 0.472168 5.4668 0.472168H70.4668C73.2282 0.472168 75.4668 2.74518 75.4668 5.54909V28.3952C75.4668 31.1992 73.2282 33.4722 70.4668 33.4722H5.4668C2.70537 33.4722 0.466797 31.1992 0.466797 28.3952V5.54909Z" fill="#BA0000"/>
<path d="M8.57935 23.3183V11.8749H12.8143V20.0487H17.4168V23.3183H8.57935Z" fill="white"/>
<path d="M18.73 23.3183V11.8749H22.965V23.3183H18.73Z" fill="white"/>
<path d="M28.8717 23.3183L24.5317 11.8749H28.9417L31.0592 18.2363L33.1942 11.8749H37.6042L33.2642 23.3183H28.8717Z" fill="white"/>
<path d="M39.1852 23.3183V11.8749H48.1977V14.9667H43.4202V15.9973H47.5327V19.1958H43.4202V20.2264H48.1977V23.3183H39.1852Z" fill="white"/>
<ellipse cx="61.7168" cy="16.9721" rx="6.25" ry="6.34615" fill="white"/>
</svg>
